<mxfile host="app.diagrams.net" modified="2021-09-28T06:45:07.178Z" agent="5.0 (Windows NT 10.0; Win64; x64) AppleWebKit/537.36 (KHTML, like Gecko) Chrome/93.0.4577.82 Safari/537.36" etag="KK6m6UTVnZHDJQjChaXP" version="15.3.5" type="github">
  <diagram id="C5RBs43oDa-KdzZeNtuy" name="Page-1">
    <mxGraphModel dx="1038" dy="579" grid="1" gridSize="10" guides="1" tooltips="1" connect="1" arrows="1" fold="1" page="1" pageScale="1" pageWidth="827" pageHeight="1169" math="0" shadow="0">
      <root>
        <mxCell id="WIyWlLk6GJQsqaUBKTNV-0" />
        <mxCell id="WIyWlLk6GJQsqaUBKTNV-1" parent="WIyWlLk6GJQsqaUBKTNV-0" />
        <mxCell id="WIyWlLk6GJQsqaUBKTNV-2" value="" style="rounded=0;html=1;jettySize=auto;orthogonalLoop=1;fontSize=11;endArrow=block;endFill=0;endSize=8;strokeWidth=1;shadow=0;labelBackgroundColor=none;edgeStyle=orthogonalEdgeStyle;" parent="WIyWlLk6GJQsqaUBKTNV-1" source="WIyWlLk6GJQsqaUBKTNV-3" target="WIyWlLk6GJQsqaUBKTNV-6" edge="1">
          <mxGeometry relative="1" as="geometry" />
        </mxCell>
        <mxCell id="WIyWlLk6GJQsqaUBKTNV-3" value="start the experiment&lt;br&gt;(before starting, denote that if the robot doesn&#39;t look at you then adjust its location)" style="rounded=1;whiteSpace=wrap;html=1;fontSize=12;glass=0;strokeWidth=1;shadow=0;fillColor=#fff2cc;strokeColor=#d6b656;" parent="WIyWlLk6GJQsqaUBKTNV-1" vertex="1">
          <mxGeometry x="105" y="20" width="230" height="100" as="geometry" />
        </mxCell>
        <mxCell id="WIyWlLk6GJQsqaUBKTNV-4" value="" style="rounded=0;html=1;jettySize=auto;orthogonalLoop=1;fontSize=11;endArrow=block;endFill=0;endSize=8;strokeWidth=1;shadow=0;labelBackgroundColor=none;edgeStyle=orthogonalEdgeStyle;" parent="WIyWlLk6GJQsqaUBKTNV-1" source="WIyWlLk6GJQsqaUBKTNV-6" target="WIyWlLk6GJQsqaUBKTNV-10" edge="1">
          <mxGeometry y="20" relative="1" as="geometry">
            <mxPoint as="offset" />
          </mxGeometry>
        </mxCell>
        <mxCell id="WIyWlLk6GJQsqaUBKTNV-5" value="" style="edgeStyle=orthogonalEdgeStyle;rounded=0;html=1;jettySize=auto;orthogonalLoop=1;fontSize=11;endArrow=block;endFill=0;endSize=8;strokeWidth=1;shadow=0;labelBackgroundColor=none;exitX=0;exitY=0.5;exitDx=0;exitDy=0;" parent="WIyWlLk6GJQsqaUBKTNV-1" source="WIyWlLk6GJQsqaUBKTNV-7" edge="1">
          <mxGeometry x="-0.1765" y="30" relative="1" as="geometry">
            <mxPoint as="offset" />
            <mxPoint x="220" y="130" as="sourcePoint" />
            <mxPoint x="220" y="130" as="targetPoint" />
          </mxGeometry>
        </mxCell>
        <mxCell id="WIyWlLk6GJQsqaUBKTNV-6" value="Robot&lt;br&gt;say hi and its name" style="rhombus;whiteSpace=wrap;html=1;shadow=0;fontFamily=Helvetica;fontSize=12;align=center;strokeWidth=1;spacing=6;spacingTop=-4;" parent="WIyWlLk6GJQsqaUBKTNV-1" vertex="1">
          <mxGeometry x="160" y="155" width="119" height="80" as="geometry" />
        </mxCell>
        <mxCell id="WIyWlLk6GJQsqaUBKTNV-7" value="participant&lt;br&gt;say hi and their names" style="rounded=1;whiteSpace=wrap;html=1;fontSize=12;glass=0;strokeWidth=1;shadow=0;" parent="WIyWlLk6GJQsqaUBKTNV-1" vertex="1">
          <mxGeometry x="390" y="110" width="120" height="40" as="geometry" />
        </mxCell>
        <mxCell id="WIyWlLk6GJQsqaUBKTNV-8" value="" style="rounded=0;html=1;jettySize=auto;orthogonalLoop=1;fontSize=11;endArrow=block;endFill=0;endSize=8;strokeWidth=1;shadow=0;labelBackgroundColor=none;edgeStyle=orthogonalEdgeStyle;" parent="WIyWlLk6GJQsqaUBKTNV-1" source="WIyWlLk6GJQsqaUBKTNV-10" edge="1">
          <mxGeometry x="0.3333" y="20" relative="1" as="geometry">
            <mxPoint as="offset" />
            <mxPoint x="220" y="430" as="targetPoint" />
          </mxGeometry>
        </mxCell>
        <mxCell id="WIyWlLk6GJQsqaUBKTNV-10" value="Robot&lt;br&gt;say &quot;of course&quot;" style="rhombus;whiteSpace=wrap;html=1;shadow=0;fontFamily=Helvetica;fontSize=12;align=center;strokeWidth=1;spacing=6;spacingTop=-4;" parent="WIyWlLk6GJQsqaUBKTNV-1" vertex="1">
          <mxGeometry x="170" y="292" width="100" height="80" as="geometry" />
        </mxCell>
        <mxCell id="bK_OTPKfactKSkm2i6Nu-1" value="" style="edgeStyle=orthogonalEdgeStyle;rounded=0;html=1;jettySize=auto;orthogonalLoop=1;fontSize=11;endArrow=block;endFill=0;endSize=8;strokeWidth=1;shadow=0;labelBackgroundColor=none;exitX=0;exitY=0.5;exitDx=0;exitDy=0;" parent="WIyWlLk6GJQsqaUBKTNV-1" source="bK_OTPKfactKSkm2i6Nu-2" edge="1">
          <mxGeometry x="-0.1765" y="30" relative="1" as="geometry">
            <mxPoint as="offset" />
            <mxPoint x="392" y="255" as="sourcePoint" />
            <mxPoint x="222" y="255" as="targetPoint" />
          </mxGeometry>
        </mxCell>
        <mxCell id="bK_OTPKfactKSkm2i6Nu-2" value="participant&lt;br&gt;say &quot;lets start the experiment&quot;" style="rounded=1;whiteSpace=wrap;html=1;fontSize=12;glass=0;strokeWidth=1;shadow=0;" parent="WIyWlLk6GJQsqaUBKTNV-1" vertex="1">
          <mxGeometry x="395" y="235" width="120" height="40" as="geometry" />
        </mxCell>
        <mxCell id="bK_OTPKfactKSkm2i6Nu-3" value="" style="rounded=0;html=1;jettySize=auto;orthogonalLoop=1;fontSize=11;endArrow=block;endFill=0;endSize=8;strokeWidth=1;shadow=0;labelBackgroundColor=none;edgeStyle=orthogonalEdgeStyle;" parent="WIyWlLk6GJQsqaUBKTNV-1" source="bK_OTPKfactKSkm2i6Nu-4" edge="1">
          <mxGeometry x="0.3333" y="20" relative="1" as="geometry">
            <mxPoint as="offset" />
            <mxPoint x="220" y="568" as="targetPoint" />
          </mxGeometry>
        </mxCell>
        <mxCell id="bK_OTPKfactKSkm2i6Nu-4" value="Robot&lt;br&gt;Move forward" style="rhombus;whiteSpace=wrap;html=1;shadow=0;fontFamily=Helvetica;fontSize=12;align=center;strokeWidth=1;spacing=6;spacingTop=-4;" parent="WIyWlLk6GJQsqaUBKTNV-1" vertex="1">
          <mxGeometry x="170" y="430" width="100" height="80" as="geometry" />
        </mxCell>
        <mxCell id="bK_OTPKfactKSkm2i6Nu-5" value="" style="edgeStyle=orthogonalEdgeStyle;rounded=0;html=1;jettySize=auto;orthogonalLoop=1;fontSize=11;endArrow=block;endFill=0;endSize=8;strokeWidth=1;shadow=0;labelBackgroundColor=none;exitX=0;exitY=0.5;exitDx=0;exitDy=0;" parent="WIyWlLk6GJQsqaUBKTNV-1" source="bK_OTPKfactKSkm2i6Nu-6" edge="1">
          <mxGeometry x="-0.1765" y="30" relative="1" as="geometry">
            <mxPoint as="offset" />
            <mxPoint x="392" y="393" as="sourcePoint" />
            <mxPoint x="222" y="393" as="targetPoint" />
          </mxGeometry>
        </mxCell>
        <mxCell id="bK_OTPKfactKSkm2i6Nu-6" value="&quot;Move to the square point&quot;" style="rounded=1;whiteSpace=wrap;html=1;fontSize=12;glass=0;strokeWidth=1;shadow=0;" parent="WIyWlLk6GJQsqaUBKTNV-1" vertex="1">
          <mxGeometry x="395" y="373" width="120" height="40" as="geometry" />
        </mxCell>
        <mxCell id="bK_OTPKfactKSkm2i6Nu-7" value="" style="rounded=0;html=1;jettySize=auto;orthogonalLoop=1;fontSize=11;endArrow=block;endFill=0;endSize=8;strokeWidth=1;shadow=0;labelBackgroundColor=none;edgeStyle=orthogonalEdgeStyle;" parent="WIyWlLk6GJQsqaUBKTNV-1" source="bK_OTPKfactKSkm2i6Nu-8" edge="1">
          <mxGeometry x="0.3333" y="20" relative="1" as="geometry">
            <mxPoint as="offset" />
            <mxPoint x="220" y="705" as="targetPoint" />
          </mxGeometry>
        </mxCell>
        <mxCell id="bK_OTPKfactKSkm2i6Nu-8" value="action 1&lt;br&gt;(scared)" style="rhombus;whiteSpace=wrap;html=1;shadow=0;fontFamily=Helvetica;fontSize=12;align=center;strokeWidth=1;spacing=6;spacingTop=-4;" parent="WIyWlLk6GJQsqaUBKTNV-1" vertex="1">
          <mxGeometry x="170" y="567" width="100" height="80" as="geometry" />
        </mxCell>
        <mxCell id="bK_OTPKfactKSkm2i6Nu-9" value="" style="edgeStyle=orthogonalEdgeStyle;rounded=0;html=1;jettySize=auto;orthogonalLoop=1;fontSize=11;endArrow=block;endFill=0;endSize=8;strokeWidth=1;shadow=0;labelBackgroundColor=none;exitX=0;exitY=0.5;exitDx=0;exitDy=0;" parent="WIyWlLk6GJQsqaUBKTNV-1" source="bK_OTPKfactKSkm2i6Nu-10" edge="1">
          <mxGeometry x="-0.1765" y="30" relative="1" as="geometry">
            <mxPoint as="offset" />
            <mxPoint x="392" y="530" as="sourcePoint" />
            <mxPoint x="222" y="530.0000000000001" as="targetPoint" />
          </mxGeometry>
        </mxCell>
        <mxCell id="bK_OTPKfactKSkm2i6Nu-10" value="&quot;Cross the bridge&quot;" style="rounded=1;whiteSpace=wrap;html=1;fontSize=12;glass=0;strokeWidth=1;shadow=0;" parent="WIyWlLk6GJQsqaUBKTNV-1" vertex="1">
          <mxGeometry x="395" y="510" width="120" height="40" as="geometry" />
        </mxCell>
        <mxCell id="bK_OTPKfactKSkm2i6Nu-11" value="" style="rounded=0;html=1;jettySize=auto;orthogonalLoop=1;fontSize=11;endArrow=block;endFill=0;endSize=8;strokeWidth=1;shadow=0;labelBackgroundColor=none;edgeStyle=orthogonalEdgeStyle;" parent="WIyWlLk6GJQsqaUBKTNV-1" source="bK_OTPKfactKSkm2i6Nu-12" edge="1">
          <mxGeometry x="0.3333" y="20" relative="1" as="geometry">
            <mxPoint as="offset" />
            <mxPoint x="220" y="842" as="targetPoint" />
          </mxGeometry>
        </mxCell>
        <mxCell id="bK_OTPKfactKSkm2i6Nu-12" value="action2&lt;br&gt;(scared)" style="rhombus;whiteSpace=wrap;html=1;shadow=0;fontFamily=Helvetica;fontSize=12;align=center;strokeWidth=1;spacing=6;spacingTop=-4;" parent="WIyWlLk6GJQsqaUBKTNV-1" vertex="1">
          <mxGeometry x="170" y="704" width="100" height="80" as="geometry" />
        </mxCell>
        <mxCell id="bK_OTPKfactKSkm2i6Nu-13" value="" style="edgeStyle=orthogonalEdgeStyle;rounded=0;html=1;jettySize=auto;orthogonalLoop=1;fontSize=11;endArrow=block;endFill=0;endSize=8;strokeWidth=1;shadow=0;labelBackgroundColor=none;exitX=0;exitY=0.5;exitDx=0;exitDy=0;" parent="WIyWlLk6GJQsqaUBKTNV-1" source="bK_OTPKfactKSkm2i6Nu-14" edge="1">
          <mxGeometry x="-0.1765" y="30" relative="1" as="geometry">
            <mxPoint as="offset" />
            <mxPoint x="392" y="667" as="sourcePoint" />
            <mxPoint x="222" y="667.0000000000001" as="targetPoint" />
          </mxGeometry>
        </mxCell>
        <mxCell id="bK_OTPKfactKSkm2i6Nu-14" value="feedback 1" style="rounded=1;whiteSpace=wrap;html=1;fontSize=12;glass=0;strokeWidth=1;shadow=0;" parent="WIyWlLk6GJQsqaUBKTNV-1" vertex="1">
          <mxGeometry x="395" y="647" width="120" height="40" as="geometry" />
        </mxCell>
        <mxCell id="bK_OTPKfactKSkm2i6Nu-15" value="" style="rounded=0;html=1;jettySize=auto;orthogonalLoop=1;fontSize=11;endArrow=block;endFill=0;endSize=8;strokeWidth=1;shadow=0;labelBackgroundColor=none;edgeStyle=orthogonalEdgeStyle;" parent="WIyWlLk6GJQsqaUBKTNV-1" source="bK_OTPKfactKSkm2i6Nu-16" edge="1">
          <mxGeometry x="0.3333" y="20" relative="1" as="geometry">
            <mxPoint as="offset" />
            <mxPoint x="220" y="979" as="targetPoint" />
          </mxGeometry>
        </mxCell>
        <mxCell id="bK_OTPKfactKSkm2i6Nu-16" value="action 3&lt;br&gt;(move forward)" style="rhombus;whiteSpace=wrap;html=1;shadow=0;fontFamily=Helvetica;fontSize=12;align=center;strokeWidth=1;spacing=6;spacingTop=-4;" parent="WIyWlLk6GJQsqaUBKTNV-1" vertex="1">
          <mxGeometry x="170" y="841" width="100" height="80" as="geometry" />
        </mxCell>
        <mxCell id="bK_OTPKfactKSkm2i6Nu-17" value="" style="edgeStyle=orthogonalEdgeStyle;rounded=0;html=1;jettySize=auto;orthogonalLoop=1;fontSize=11;endArrow=block;endFill=0;endSize=8;strokeWidth=1;shadow=0;labelBackgroundColor=none;exitX=0;exitY=0.5;exitDx=0;exitDy=0;" parent="WIyWlLk6GJQsqaUBKTNV-1" source="bK_OTPKfactKSkm2i6Nu-18" edge="1">
          <mxGeometry x="-0.1765" y="30" relative="1" as="geometry">
            <mxPoint as="offset" />
            <mxPoint x="392" y="804" as="sourcePoint" />
            <mxPoint x="222" y="804" as="targetPoint" />
          </mxGeometry>
        </mxCell>
        <mxCell id="bK_OTPKfactKSkm2i6Nu-18" value="feedback2&lt;br&gt;(encourage)" style="rounded=1;whiteSpace=wrap;html=1;fontSize=12;glass=0;strokeWidth=1;shadow=0;" parent="WIyWlLk6GJQsqaUBKTNV-1" vertex="1">
          <mxGeometry x="395" y="784" width="120" height="40" as="geometry" />
        </mxCell>
        <mxCell id="bK_OTPKfactKSkm2i6Nu-19" value="" style="rounded=0;html=1;jettySize=auto;orthogonalLoop=1;fontSize=11;endArrow=block;endFill=0;endSize=8;strokeWidth=1;shadow=0;labelBackgroundColor=none;edgeStyle=orthogonalEdgeStyle;" parent="WIyWlLk6GJQsqaUBKTNV-1" source="bK_OTPKfactKSkm2i6Nu-20" edge="1">
          <mxGeometry x="0.3333" y="20" relative="1" as="geometry">
            <mxPoint as="offset" />
            <mxPoint x="220" y="1116" as="targetPoint" />
          </mxGeometry>
        </mxCell>
        <mxCell id="bK_OTPKfactKSkm2i6Nu-20" value="action 4&lt;br&gt;(run away from obstruction)&lt;br&gt;+&lt;br&gt;action 5&lt;br&gt;(give up)" style="rhombus;whiteSpace=wrap;html=1;shadow=0;fontFamily=Helvetica;fontSize=12;align=center;strokeWidth=1;spacing=6;spacingTop=-4;" parent="WIyWlLk6GJQsqaUBKTNV-1" vertex="1">
          <mxGeometry x="125" y="952" width="190" height="108" as="geometry" />
        </mxCell>
        <mxCell id="bK_OTPKfactKSkm2i6Nu-21" value="" style="edgeStyle=orthogonalEdgeStyle;rounded=0;html=1;jettySize=auto;orthogonalLoop=1;fontSize=11;endArrow=block;endFill=0;endSize=8;strokeWidth=1;shadow=0;labelBackgroundColor=none;exitX=0;exitY=0.5;exitDx=0;exitDy=0;" parent="WIyWlLk6GJQsqaUBKTNV-1" source="bK_OTPKfactKSkm2i6Nu-28" edge="1">
          <mxGeometry x="-0.1765" y="30" relative="1" as="geometry">
            <mxPoint as="offset" />
            <mxPoint x="395" y="941" as="sourcePoint" />
            <mxPoint x="222" y="941" as="targetPoint" />
          </mxGeometry>
        </mxCell>
        <mxCell id="bK_OTPKfactKSkm2i6Nu-23" value="" style="rounded=0;html=1;jettySize=auto;orthogonalLoop=1;fontSize=11;endArrow=block;endFill=0;endSize=8;strokeWidth=1;shadow=0;labelBackgroundColor=none;edgeStyle=orthogonalEdgeStyle;" parent="WIyWlLk6GJQsqaUBKTNV-1" source="bK_OTPKfactKSkm2i6Nu-24" edge="1">
          <mxGeometry x="0.3333" y="20" relative="1" as="geometry">
            <mxPoint as="offset" />
            <mxPoint x="220" y="1253" as="targetPoint" />
          </mxGeometry>
        </mxCell>
        <mxCell id="bK_OTPKfactKSkm2i6Nu-24" value="action6&lt;br&gt;(finally cross the bridge)" style="rhombus;whiteSpace=wrap;html=1;shadow=0;fontFamily=Helvetica;fontSize=12;align=center;strokeWidth=1;spacing=6;spacingTop=-4;" parent="WIyWlLk6GJQsqaUBKTNV-1" vertex="1">
          <mxGeometry x="170" y="1115" width="100" height="80" as="geometry" />
        </mxCell>
        <mxCell id="bK_OTPKfactKSkm2i6Nu-25" value="" style="edgeStyle=orthogonalEdgeStyle;rounded=0;html=1;jettySize=auto;orthogonalLoop=1;fontSize=11;endArrow=block;endFill=0;endSize=8;strokeWidth=1;shadow=0;labelBackgroundColor=none;exitX=0;exitY=0.5;exitDx=0;exitDy=0;" parent="WIyWlLk6GJQsqaUBKTNV-1" source="bK_OTPKfactKSkm2i6Nu-26" edge="1">
          <mxGeometry x="-0.1765" y="30" relative="1" as="geometry">
            <mxPoint as="offset" />
            <mxPoint x="392" y="1078" as="sourcePoint" />
            <mxPoint x="222" y="1078" as="targetPoint" />
          </mxGeometry>
        </mxCell>
        <mxCell id="bK_OTPKfactKSkm2i6Nu-26" value="feedback 3&lt;br&gt;(encourage)" style="rounded=1;whiteSpace=wrap;html=1;fontSize=12;glass=0;strokeWidth=1;shadow=0;" parent="WIyWlLk6GJQsqaUBKTNV-1" vertex="1">
          <mxGeometry x="395" y="1058" width="120" height="40" as="geometry" />
        </mxCell>
        <mxCell id="bK_OTPKfactKSkm2i6Nu-28" value="&#xa;&#xa;&lt;span style=&quot;color: rgb(0, 0, 0); font-family: helvetica; font-size: 12px; font-style: normal; font-weight: 400; letter-spacing: normal; text-align: center; text-indent: 0px; text-transform: none; word-spacing: 0px; background-color: rgb(248, 249, 250); display: inline; float: none;&quot;&gt;encounter gigantic obstruction&lt;/span&gt;&#xa;&#xa;" style="shape=parallelogram;perimeter=parallelogramPerimeter;whiteSpace=wrap;html=1;fixedSize=1;fillColor=#f8cecc;strokeColor=#b85450;" parent="WIyWlLk6GJQsqaUBKTNV-1" vertex="1">
          <mxGeometry x="390" y="911" width="120" height="60" as="geometry" />
        </mxCell>
        <mxCell id="bK_OTPKfactKSkm2i6Nu-30" value="action 6&lt;br&gt;celebration" style="rounded=0;whiteSpace=wrap;html=1;" parent="WIyWlLk6GJQsqaUBKTNV-1" vertex="1">
          <mxGeometry x="160" y="1250" width="120" height="60" as="geometry" />
        </mxCell>
        <mxCell id="y6rVnwLI9Oqt9AG4judH-0" value="1. before say &quot;hey vector&quot; the robot has to be toward the participants&lt;br&gt;2. participants are allowed to command vector by only one sentece at one time" style="rounded=1;whiteSpace=wrap;html=1;fontSize=12;glass=0;strokeWidth=1;shadow=0;fillColor=#fff2cc;strokeColor=#d6b656;" vertex="1" parent="WIyWlLk6GJQsqaUBKTNV-1">
          <mxGeometry x="430" y="10" width="320" height="70" as="geometry" />
        </mxCell>
      </root>
    </mxGraphModel>
  </diagram>
</mxfile>
